<svg width="22" height="21" viewBox="0 0 22 21" fill="none" xmlns="http://www.w3.org/2000/svg">
<path d="M19.3269 8.35625L17.6732 7.805L18.4519 6.2475C18.5308 6.08448 18.5572 5.90097 18.5275 5.7223C18.4977 5.54364 18.4132 5.37861 18.2857 5.25L16.4219 3.38625C16.2926 3.25683 16.126 3.17118 15.9455 3.14136C15.765 3.11154 15.5797 3.13904 15.4157 3.22L13.8582 3.99875L13.3069 2.345C13.2487 2.17262 13.1382 2.02268 12.9908 1.91603C12.8433 1.80939 12.6663 1.75135 12.4844 1.75H9.85938C9.67594 1.74953 9.497 1.80672 9.34783 1.91349C9.19867 2.02026 9.08683 2.17121 9.02813 2.345L8.47688 3.99875L6.91938 3.22C6.75636 3.14106 6.57285 3.11466 6.39418 3.14443C6.21552 3.17421 6.05049 3.2587 5.92188 3.38625L4.05813 5.25C3.92871 5.3793 3.84306 5.54591 3.81324 5.7264C3.78342 5.9069 3.81092 6.0922 3.89188 6.25625L4.67063 7.81375L3.01688 8.365C2.8445 8.42322 2.69456 8.53373 2.58791 8.68115C2.48127 8.82856 2.42323 9.00556 2.42188 9.1875V11.8125C2.42141 11.9959 2.4786 12.1749 2.58537 12.3241C2.69214 12.4732 2.84309 12.5851 3.01688 12.6438L4.67063 13.195L3.89188 14.7525C3.81294 14.9155 3.78654 15.099 3.81631 15.2777C3.84609 15.4564 3.93058 15.6214 4.05813 15.75L5.92188 17.6138C6.05118 17.7432 6.21779 17.8288 6.39828 17.8586C6.57878 17.8885 6.76408 17.861 6.92813 17.78L8.48563 17.0013L9.03688 18.655C9.09558 18.8288 9.20742 18.9797 9.35658 19.0865C9.50575 19.1933 9.68469 19.2505 9.86813 19.25H12.4932C12.6766 19.2505 12.8555 19.1933 13.0047 19.0865C13.1539 18.9797 13.2657 18.8288 13.3244 18.655L13.8757 17.0013L15.4332 17.78C15.5951 17.857 15.7769 17.8823 15.9537 17.8525C16.1305 17.8228 16.294 17.7394 16.4219 17.6138L18.2857 15.75C18.4151 15.6207 18.5007 15.4541 18.5305 15.2736C18.5604 15.0931 18.5329 14.9078 18.4519 14.7438L17.6732 13.1863L19.3269 12.635C19.4993 12.5768 19.6492 12.4663 19.7559 12.3189C19.8625 12.1714 19.9206 11.9944 19.9219 11.8125V9.1875C19.9224 9.00406 19.8652 8.82512 19.7584 8.67595C19.6516 8.52679 19.5007 8.41495 19.3269 8.35625V8.35625ZM18.1719 11.1825L17.1219 11.5325C16.8805 11.6108 16.6589 11.7407 16.4727 11.9132C16.2865 12.0857 16.14 12.2966 16.0434 12.5314C15.9469 12.7661 15.9025 13.0191 15.9135 13.2727C15.9244 13.5263 15.9904 13.7745 16.1069 14L16.6057 14.9975L15.6432 15.96L14.6719 15.435C14.4475 15.3232 14.2017 15.2609 13.9512 15.2524C13.7006 15.2438 13.4512 15.2892 13.2197 15.3855C12.9882 15.4817 12.7801 15.6266 12.6095 15.8102C12.4388 15.9939 12.3096 16.2121 12.2307 16.45L11.8807 17.5H10.4894L10.1394 16.45C10.0611 16.2086 9.93115 15.987 9.75867 15.8008C9.58618 15.6146 9.37525 15.4681 9.1405 15.3715C8.90575 15.275 8.6528 15.2306 8.3992 15.2416C8.14561 15.2525 7.89743 15.3185 7.67188 15.435L6.67438 15.9338L5.71188 14.9713L6.23688 14C6.35334 13.7745 6.41934 13.5263 6.4303 13.2727C6.44126 13.0191 6.39692 12.7661 6.30035 12.5314C6.20379 12.2966 6.05731 12.0857 5.87108 11.9132C5.68486 11.7407 5.46333 11.6108 5.22188 11.5325L4.17188 11.1825V9.8175L5.22188 9.4675C5.46333 9.38918 5.68486 9.25927 5.87108 9.08679C6.05731 8.9143 6.20379 8.70337 6.30035 8.46862C6.39692 8.23387 6.44126 7.98092 6.4303 7.72732C6.41934 7.47373 6.35334 7.22555 6.23688 7L5.73813 6.02875L6.70063 5.06625L7.67188 5.565C7.89743 5.68146 8.14561 5.74746 8.3992 5.75842C8.6528 5.76938 8.90575 5.72504 9.1405 5.62847C9.37525 5.53191 9.58618 5.38543 9.75867 5.1992C9.93115 5.01298 10.0611 4.79145 10.1394 4.55L10.4894 3.5H11.8544L12.2044 4.55C12.2827 4.79145 12.4126 5.01298 12.5851 5.1992C12.7576 5.38543 12.9685 5.53191 13.2033 5.62847C13.438 5.72504 13.691 5.76938 13.9446 5.75842C14.1982 5.74746 14.4464 5.68146 14.6719 5.565L15.6694 5.06625L16.6319 6.02875L16.1069 7C15.9951 7.22439 15.9328 7.47018 15.9243 7.72073C15.9157 7.97128 15.9611 8.22074 16.0574 8.45222C16.1536 8.68371 16.2985 8.89181 16.4821 9.06245C16.6658 9.23308 16.884 9.36227 17.1219 9.44125L18.1719 9.79125V11.1825ZM11.1719 7C10.4796 7 9.80296 7.20527 9.22739 7.58986C8.65182 7.97444 8.20321 8.52107 7.9383 9.16061C7.6734 9.80015 7.60409 10.5039 7.73913 11.1828C7.87418 11.8618 8.20752 12.4854 8.69701 12.9749C9.18649 13.4644 9.81013 13.7977 10.4891 13.9328C11.168 14.0678 11.8718 13.9985 12.5113 13.7336C13.1508 13.4687 13.6975 13.0201 14.082 12.4445C14.4666 11.8689 14.6719 11.1922 14.6719 10.5C14.6719 9.57174 14.3032 8.68151 13.6468 8.02513C12.9904 7.36875 12.1002 7 11.1719 7V7ZM11.1719 12.25C10.8258 12.25 10.4874 12.1474 10.1996 11.9551C9.91185 11.7628 9.68755 11.4895 9.55509 11.1697C9.42264 10.8499 9.38798 10.4981 9.45551 10.1586C9.52303 9.81913 9.6897 9.50731 9.93445 9.26257C10.1792 9.01782 10.491 8.85115 10.8305 8.78363C11.17 8.7161 11.5218 8.75076 11.8416 8.88321C12.1614 9.01567 12.4347 9.23997 12.627 9.52775C12.8193 9.81554 12.9219 10.1539 12.9219 10.5C12.9219 10.9641 12.7375 11.4092 12.4093 11.7374C12.0811 12.0656 11.636 12.25 11.1719 12.25Z" fill="#1A1930"/>
</svg>
